<svg xmlns="http://www.w3.org/2000/svg" width="14" height="14" viewBox="0 0 14 14">
  <path fill="#626E88" d="M14,7.94266669 L14,6.05733331 C13.0369167,5.71491669 12.4290833,5.61866669 12.12225,4.87958331 L12.12225,4.879 C11.8148333,4.13758331 12.1805833,3.63416669 12.6163333,2.71658333 L11.2834167,1.38366667 C10.3728333,1.8165 9.86416669,2.18575 9.121,1.87775 L9.12041669,1.87775 C8.38016669,1.57091667 8.28333331,0.958416669 7.94266669,0 L6.05733331,0 C5.71783331,0.95375 5.62041669,1.57033333 4.87958331,1.87775 L4.879,1.87775 C4.13758331,2.18575 3.63533331,1.82058333 2.71658333,1.38366667 L1.38366667,2.71658333 C1.81825,3.63125 2.18575,4.13641669 1.87775,4.879 C1.57033333,5.62041669 0.95375,5.71783331 0,6.05733331 L0,7.94266669 C0.952,8.281 1.57033333,8.37958331 1.87775,9.12041669 C2.18691667,9.86825 1.81125,10.3839167 1.38366667,11.2828333 L2.71658333,12.6163333 C3.62775,12.1829167 4.13641669,11.81425 4.879,12.12225 L4.87958331,12.12225 C5.62041669,12.4290833 5.71725,13.0433333 6.05733331,14 L7.94266669,14 C8.28216669,13.0456667 8.37958331,12.4308333 9.12508331,12.1205 L9.12566669,12.1205 C9.86183331,11.8148333 10.3623333,12.1794167 11.2828333,12.6169167 L12.61575,11.2834167 C12.1823333,10.3716667 11.8136667,9.86416669 12.1210833,9.12158331 C12.4285,8.38016669 13.0474167,8.28158331 14,7.94266669 L14,7.94266669 Z M7,10 C5.3428,10 4,8.6566 4,7 C4,5.3434 5.3428,4 7,4 C8.6572,4 10,5.3434 10,7 C10,8.6566 8.6572,10 7,10 Z M9,7 C9,8.1026667 8.1026667,9 7,9 C5.8973333,9 5,8.1026667 5,7 C5,5.8973333 5.8973333,5 7,5 C8.1026667,5 9,5.8973333 9,7 Z"/>
</svg>
