<?xml version="1.0" standalone="no"?><!DOCTYPE svg PUBLIC "-//W3C//DTD SVG 1.1//EN" "http://www.w3.org/Graphics/SVG/1.1/DTD/svg11.dtd"><svg t="1599316092908" class="icon" viewBox="0 0 1024 1024" version="1.1" xmlns="http://www.w3.org/2000/svg" p-id="5241" xmlns:xlink="http://www.w3.org/1999/xlink" width="48" height="48"><defs><style type="text/css"></style></defs><path d="M481 511.4c49.4 0 89.5 32.1 89.5 71.6 0 39.5-40.2 71.6-89.5 71.6s-89.5-32.1-89.5-71.6c0-39.5 40.1-71.6 89.5-71.6m0-35.8c-69.2 0-125.3 48.1-125.3 107.4 0 59.3 56.1 107.4 125.3 107.4s125.3-48 125.3-107.4c0-59.3-56.1-107.4-125.3-107.4zM217.4 442.8c-0.8 0-1.5-0.1-2.3-0.3-4.8-1.2-7.6-6.1-6.4-10.9 1.4-5.2 2.9-10.3 4.5-15.4 1.5-4.7 6.5-7.3 11.2-5.8 4.7 1.5 7.3 6.5 5.8 11.2-1.5 4.8-2.9 9.6-4.2 14.5-1 4-4.6 6.7-8.6 6.7z m17.8-49.7c-1.3 0-2.5-0.3-3.7-0.8-4.5-2.1-6.5-7.4-4.4-11.9 30.4-65.9 83.1-119.6 148.5-151.2 4.5-2.2 9.8-0.3 12 4.2 2.2 4.5 0.3 9.8-4.2 12-61.6 29.8-111.4 80.5-140 142.6a9.16 9.16 0 0 1-8.2 5.1z" fill="#FF7878" p-id="5242"></path><path d="M511.8 959C265 959 64.2 758.2 64.2 511.4c0-232.7 174.5-424.3 406-445.7 13.7-1.3 27.7-1.9 41.6-1.9 9.9 0 17.9 8 17.9 17.9s-8 17.9-17.9 17.9c-12.8 0-25.7 0.6-38.3 1.7C260.6 121.1 100 297.3 100 511.4c0 227 184.7 411.8 411.8 411.8s411.8-184.7 411.8-411.8c0-63.6-14.1-124.5-41.9-181.2-8.9-18.2-19.3-35.9-30.9-52.6-5.6-8.1-3.6-19.3 4.6-24.9 8.1-5.6 19.3-3.6 24.9 4.6 12.5 18.1 23.8 37.4 33.5 57.2 30.2 61.6 45.6 127.9 45.6 196.9C959.3 758.2 758.6 959 511.8 959z m76.7-358.1c-9.9 0-17.9-8-17.9-17.9V128.4c0-27.9 14.6-47.9 38.1-52.2 0.3-0.1 6.8-1.5 13.1 0.1v-0.1c54.3 13 103.4 36.6 154.6 74.2 15.6 11.5 30.7 24.2 44.9 37.7 7.1 6.8 7.4 18.2 0.6 25.3s-18.2 7.4-25.3 0.6c-13-12.4-26.9-24.1-41.3-34.7-46.5-34.2-91-55.7-139.7-67.7h-1.1c-5.6 1.8-8.1 7.4-8.1 16.8V583c0 9.9-8.1 17.9-17.9 17.9z" fill="#FF7878" p-id="5243"></path></svg>