<?xml version="1.0" standalone="no"?><!DOCTYPE svg PUBLIC "-//W3C//DTD SVG 1.1//EN" "http://www.w3.org/Graphics/SVG/1.1/DTD/svg11.dtd"><svg t="1599316293895" class="icon" viewBox="0 0 1280 1024" version="1.1" xmlns="http://www.w3.org/2000/svg" p-id="12348" xmlns:xlink="http://www.w3.org/1999/xlink" width="60" height="48"><defs><style type="text/css"></style></defs><path d="M1140.363636 93.090909a47.127273 47.127273 0 0 1 46.545455 46.545455v744.727272a47.127273 47.127273 0 0 1-46.545455 46.545455H139.636364a47.127273 47.127273 0 0 1-46.545455-46.545455V139.636364a47.127273 47.127273 0 0 1 46.545455-46.545455h1000.727272m0-93.090909H139.636364A139.636364 139.636364 0 0 0 0 139.636364v744.727272a139.636364 139.636364 0 0 0 139.636364 139.636364h1000.727272a139.636364 139.636364 0 0 0 139.636364-139.636364V139.636364A139.636364 139.636364 0 0 0 1140.363636 0z" p-id="12349"></path><path d="M740.189091 544.349091a210.385455 210.385455 0 0 1-264.261818 88.087273 235.52 235.52 0 0 0-295.912728 98.443636L109.149091 852.945455l67.607273 35.84 60.974545-104.727273A177.92 177.92 0 0 1 461.381818 709.818182a267.636364 267.636364 0 0 0 336.290909-112.174546 177.338182 177.338182 0 0 1 223.069091-74.356363l113.803637 61.207272 36.18909-67.607272L1035.636364 445.905455a234.821818 234.821818 0 0 0-295.447273 98.443636z" p-id="12350"></path><path d="M313.832727 257.629091m-81.454545 0a81.454545 81.454545 0 1 0 162.909091 0 81.454545 81.454545 0 1 0-162.909091 0Z" p-id="12351"></path></svg>