<?xml version="1.0" standalone="no"?><!DOCTYPE svg PUBLIC "-//W3C//DTD SVG 1.1//EN" "http://www.w3.org/Graphics/SVG/1.1/DTD/svg11.dtd"><svg t="1599316379324" class="icon" viewBox="0 0 1024 1024" version="1.1" xmlns="http://www.w3.org/2000/svg" p-id="18394" xmlns:xlink="http://www.w3.org/1999/xlink" width="48" height="48"><defs><style type="text/css"></style></defs><path d="M781.5 836.1H252.2c-63.8 0-115.6-51.8-115.6-115.6V292.8c0-63.8 51.8-115.6 115.6-115.6h529.3c63.8 0 115.6 51.8 115.6 115.6v427.7c0 63.9-51.7 115.6-115.6 115.6z" fill="#FEAC33" p-id="18395"></path><path d="M231.1 179.1c-53.8 9.9-94.5 57-94.5 113.7v3.3c24.1-44.7 56.2-84.3 94.5-117zM136.6 682.1v38.4c0 63.8 51.8 115.6 115.6 115.6h29.7c-60.9-37.6-111.2-90.7-145.3-154zM897.1 419.9V292.8c0-63.8-51.8-115.6-115.6-115.6h-23.8c72.1 60.7 122.9 145.9 139.4 242.7zM897.1 720.5V558.3c-20.1 117.4-90.4 217.6-188 277.8h72.4c63.9 0 115.6-51.7 115.6-115.6z" fill="#FEAC33" p-id="18396"></path><path d="M283.2 177.2h-30.9c-7.2 0-14.3 0.7-21.1 1.9-38.3 32.7-70.4 72.3-94.5 117v88.8c21.3-86.2 74.6-159.8 146.5-207.7zM897.1 558.3V419.9c-16.6-96.9-67.3-182.1-139.4-242.7h-85.5c94.6 63 156.9 170.6 156.9 292.7 0 194.1-157.3 351.4-351.4 351.4-164.8 0-303.1-113.4-341.1-266.5v127.3c34.1 63.2 84.4 116.4 145.3 154h427.2c97.7-60.2 167.9-160.4 188-277.8z" fill="#FEB133" p-id="18397"></path><path d="M477.7 821.3c194.1 0 351.4-157.3 351.4-351.4 0-122.1-62.3-229.7-156.9-292.7H571.7c107.7 44.1 183.6 149.9 183.6 273.5C755.2 613.8 623 746 459.9 746S164.5 613.8 164.5 450.7c0-123.6 75.9-229.4 183.6-273.5h-64.9C211.3 225.1 158 298.7 136.6 384.9v169.9c38 153.1 176.3 266.5 341.1 266.5z" fill="#FEB633" p-id="18398"></path><path d="M164.5 450.7c0 163.1 132.2 295.4 295.4 295.4s295.4-132.2 295.4-295.4c0-123.6-75.9-229.4-183.6-273.5H348.1c-107.7 44.1-183.6 149.9-183.6 273.5zM442 192.1c132.2 0 239.3 107.1 239.3 239.3S574.2 670.7 442 670.7 202.7 563.6 202.7 431.4 309.8 192.1 442 192.1z" fill="#FFBC34" p-id="18399"></path><path d="M442 670.7c132.2 0 239.3-107.1 239.3-239.3S574.2 192.1 442 192.1 202.7 299.2 202.7 431.4 309.8 670.7 442 670.7z m-17.8-441.8c101.2 0 183.3 82.1 183.3 183.3s-82.1 183.3-183.3 183.3-183.3-82.1-183.3-183.3 82-183.3 183.3-183.3z" fill="#FFC134" p-id="18400"></path><path d="M424.2 595.5c101.2 0 183.3-82.1 183.3-183.3s-82.1-183.3-183.3-183.3S240.9 311 240.9 412.2s82 183.3 183.3 183.3z m-17.9-329.8c70.3 0 127.2 57 127.2 127.2s-57 127.2-127.2 127.2-127.2-57-127.2-127.2 57-127.2 127.2-127.2z" fill="#FFC634" p-id="18401"></path><path d="M279.1 393a127.2 127.2 0 1 0 254.4 0 127.2 127.2 0 1 0-254.4 0Z" fill="#FFCB34" p-id="18402"></path><path d="M781.5 845.1H252.2c-68.7 0-124.6-55.9-124.6-124.6V292.8c0-68.7 55.9-124.6 124.6-124.6h529.3c68.7 0 124.6 55.9 124.6 124.6v427.7c0 68.7-55.9 124.6-124.6 124.6zM252.2 186.2c-58.8 0-106.6 47.8-106.6 106.6v427.7c0 58.8 47.8 106.6 106.6 106.6h529.3c58.8 0 106.6-47.8 106.6-106.6V292.8c0-58.8-47.8-106.6-106.6-106.6H252.2z" fill="#FFA820" p-id="18403"></path><path d="M638.9 482.3L480.6 368.1c-21.7-15.7-53.3-1.3-53.3 24.3v228.5c0 25.6 31.7 40 53.4 24.3L638.9 531c17.1-12.4 17.1-36.4 0-48.7zM276.5 242.2h-47.1c-24.5 0-44.6 20.1-44.6 44.6s20.1 44.6 44.6 44.6h47.1c24.5 0 44.6-20.1 44.6-44.6s-20.1-44.6-44.6-44.6zM276.5 388.8h-47.1c-24.5 0-44.6 20.1-44.6 44.6s20.1 44.6 44.6 44.6h47.1c24.5 0 44.6-20.1 44.6-44.6s-20.1-44.6-44.6-44.6zM276.5 535.4h-47.1c-24.5 0-44.6 20.1-44.6 44.6s20.1 44.6 44.6 44.6h47.1c24.5 0 44.6-20.1 44.6-44.6 0-24.6-20.1-44.6-44.6-44.6zM276.5 682h-47.1c-24.5 0-44.6 20.1-44.6 44.6s20.1 44.6 44.6 44.6h47.1c24.5 0 44.6-20.1 44.6-44.6 0-24.6-20.1-44.6-44.6-44.6zM811.6 242.2h-47.1c-24.5 0-44.6 20.1-44.6 44.6s20.1 44.6 44.6 44.6h47.1c24.5 0 44.6-20.1 44.6-44.6s-20-44.6-44.6-44.6zM811.6 388.8h-47.1c-24.5 0-44.6 20.1-44.6 44.6S740 478 764.5 478h47.1c24.5 0 44.6-20.1 44.6-44.6s-20-44.6-44.6-44.6zM811.6 535.4h-47.1c-24.5 0-44.6 20.1-44.6 44.6s20.1 44.6 44.6 44.6h47.1c24.5 0 44.6-20.1 44.6-44.6 0-24.6-20-44.6-44.6-44.6zM811.6 682h-47.1c-24.5 0-44.6 20.1-44.6 44.6s20.1 44.6 44.6 44.6h47.1c24.5 0 44.6-20.1 44.6-44.6 0-24.6-20-44.6-44.6-44.6z" fill="#FFE3B4" p-id="18404"></path><path d="M534.8 214.4H410.7c-9.9 0-18 8.1-18 18s8.1 18 18 18h124.1c9.9 0 18-8.1 18-18s-8.1-18-18-18zM350.7 214.4h-10.5c-9.9 0-18 8.1-18 18s8.1 18 18 18h10.5c9.9 0 18-8.1 18-18s-8-18-18-18z" fill="#FFFFFF" p-id="18405"></path></svg>