<?xml version="1.0" standalone="no"?><!DOCTYPE svg PUBLIC "-//W3C//DTD SVG 1.1//EN" "http://www.w3.org/Graphics/SVG/1.1/DTD/svg11.dtd"><svg t="1618912346205" class="icon" viewBox="0 0 1024 1024" version="1.1" xmlns="http://www.w3.org/2000/svg" p-id="17087" xmlns:xlink="http://www.w3.org/1999/xlink" width="48" height="48"><defs><style type="text/css"></style></defs><path d="M640.256 432.544L512 550.4 383.68 432.544c-10.144-10.048-26.528-10.048-36.768 0-10.08 10.048-10.08 26.368 0 36.352l146.624 143.712c10.176 10.048 26.624 10.048 36.704 0l146.624-143.712c10.176-9.984 10.144-26.304 0-36.352-10.08-10.048-26.464-10.048-36.672 0zM512 7.68C240.544 7.68 20.48 227.744 20.48 499.2c0 271.52 220.064 491.52 491.52 491.52s491.52-220 491.52-491.52C1003.52 227.744 783.456 7.68 512 7.68z m0 919.232c-236.288 0-427.712-191.488-427.712-427.712S275.712 71.488 512 71.488c236.192 0 427.712 191.488 427.712 427.712S748.16 926.912 512 926.912z" fill="#2c2c2c" p-id="17088"></path></svg>