<?xml version="1.0" standalone="no"?><!DOCTYPE svg PUBLIC "-//W3C//DTD SVG 1.1//EN" "http://www.w3.org/Graphics/SVG/1.1/DTD/svg11.dtd"><svg t="1599316307724" class="icon" viewBox="0 0 1024 1024" version="1.1" xmlns="http://www.w3.org/2000/svg" p-id="13103" xmlns:xlink="http://www.w3.org/1999/xlink" width="48" height="48"><defs><style type="text/css"></style></defs><path d="M227.555556 369.777778a56.888889 56.888889 0 1 1 0-113.777778 56.888889 56.888889 0 0 1 0 113.777778z" fill="#6160F4" p-id="13104"></path><path d="M256.559407 189.62963H881.208889C960.075852 189.62963 1024 253.601185 1024 332.515556v482.228148c0 78.91437-63.924148 142.885926-142.78163 142.885926H256.568889C177.701926 957.62963 113.777778 893.658074 113.777778 814.743704V332.515556C113.777778 253.601185 177.701926 189.62963 256.559407 189.62963z" fill="#635FF1" opacity=".1" p-id="13105"></path><path d="M151.703704 151.703704a75.851852 75.851852 0 0 0-75.851852 75.851852v512a75.851852 75.851852 0 0 0 75.851852 75.851851h663.703703a75.851852 75.851852 0 0 0 75.851852-75.851851V227.555556a75.851852 75.851852 0 0 0-75.851852-75.851852H151.703704z m0-75.851852h663.703703c83.787852 0 151.703704 67.915852 151.703704 151.703704v512c0 83.787852-67.915852 151.703704-151.703704 151.703703H151.703704C67.915852 891.259259 0 823.343407 0 739.555556V227.555556C0 143.767704 67.915852 75.851852 151.703704 75.851852z" fill="#635FF1" p-id="13106"></path><path d="M789.778963 297.02637a37.925926 37.925926 0 1 1 0 75.851852c-27.060148 0-45.435259 9.386667-59.230815 29.648593l-2.085926 3.147852c-3.100444 4.882963-6.257778 10.552889-10.391703 18.555259l-7.708445 15.151407c-2.645333 5.167407-4.864 9.415111-7.130074 13.586963a291.65037 291.65037 0 0 1-18.337185 29.743408c-27.079111 38.238815-64.625778 67.830519-120.917334 91.230815-53.522963 22.243556-94.378667 23.476148-165.783703 13.44474l-16.507259-2.332444c-50.678519-6.893037-69.347556-5.707852-91.676445 6.940444-43.785481 24.822519-66.49363 57.950815-71.063704 102.276741a37.925926 37.925926 0 1 1-75.453629-7.774815c7.149037-69.404444 44.496593-123.856593 109.112889-160.483555 42.827852-24.272593 74.192593-25.381926 146.725926-15.085037l4.589037 0.663703c62.103704 8.988444 92.112593 8.438519 130.939259-7.698963 43.273481-17.976889 69.404444-38.570667 88.13037-65.014518l3.394371-4.864c4.513185-6.637037 7.509333-11.927704 15.217777-26.898963l7.490371-14.629926c7.158519-14.004148 12.363852-23.267556 18.75437-32.654222 28.16-41.367704 70.181926-62.805333 121.931852-62.805334z" fill="#635FF1" p-id="13107"></path></svg>