<?xml version="1.0" standalone="no"?><!DOCTYPE svg PUBLIC "-//W3C//DTD SVG 1.1//EN" "http://www.w3.org/Graphics/SVG/1.1/DTD/svg11.dtd"><svg t="1599316120382" class="icon" viewBox="0 0 1024 1024" version="1.1" xmlns="http://www.w3.org/2000/svg" p-id="6463" xmlns:xlink="http://www.w3.org/1999/xlink" width="48" height="48"><defs><style type="text/css"></style></defs><path d="M350.070803 882.280288V216.782468c0-5.212522 3.653637-9.645602 8.76873-10.619905l482.669819-95.530431a10.814766 10.814766 0 0 1 12.714657 8.525153l0.194861 2.094752v582.438469a48.715161 48.715161 0 1 0 97.430322 0V121.203322a108.245089 108.245089 0 0 0-129.241323-106.199052l-482.718534 95.481716a108.245089 108.245089 0 0 0-87.200139 106.199052v665.59525a48.715161 48.715161 0 1 0 97.430323 0z" fill="#E01313" p-id="6464"></path><path d="M69.565111 948.194845a121.787904 146.145484 70 1 0 274.663666-99.969398 121.787904 146.145484 70 1 0-274.663666 99.969398Z" fill="#E01313" p-id="6465"></path><path d="M669.085941 777.256282a121.787904 146.145484 70 1 0 274.663666-99.969399 121.787904 146.145484 70 1 0-274.663666 99.969399Z" fill="#E01313" p-id="6466"></path><path d="M267.742181 364.584268l15.1017 71.465142L945.02907 296.188181l-15.1017-71.513857z" fill="#E01313" p-id="6467"></path></svg>