<?xml version="1.0" standalone="no"?><!DOCTYPE svg PUBLIC "-//W3C//DTD SVG 1.1//EN" "http://www.w3.org/Graphics/SVG/1.1/DTD/svg11.dtd"><svg t="1618912046511" class="icon" viewBox="0 0 1024 1024" version="1.1" xmlns="http://www.w3.org/2000/svg" p-id="15762" xmlns:xlink="http://www.w3.org/1999/xlink" width="48" height="48"><defs><style type="text/css"></style></defs><path d="M398 745c-8.3 0-16.6-3.2-22.8-9.6-12.4-12.6-12.2-32.9 0.4-45.3L564.3 505 375.6 319.8c-12.6-12.4-12.8-32.6-0.4-45.3 12.4-12.6 32.6-12.8 45.3-0.4l212 208c6.1 6 9.6 14.2 9.6 22.8s-3.5 16.8-9.6 22.8l-212 208c-6.3 6.3-14.4 9.3-22.5 9.3z" fill="#bfbfbf" p-id="15763"></path><path d="M504 953c-60.5 0-119.1-11.8-174.4-35.2-53.4-22.6-101.3-54.9-142.4-96-41.1-41.1-73.4-89-96-142.4C67.8 624.1 56 565.5 56 505s11.8-119.1 35.2-174.4c22.6-53.4 54.9-101.3 96-142.4 41.1-41.1 89-73.4 142.4-96C384.9 68.8 443.5 57 504 57s119.1 11.8 174.4 35.2c53.4 22.6 101.3 54.9 142.4 96 41.1 41.1 73.4 89 96 142.4C940.2 385.9 952 444.5 952 505s-11.8 119.1-35.2 174.4c-22.6 53.4-54.9 101.3-96 142.4-41.1 41.1-89 73.4-142.4 96C623.1 941.2 564.5 953 504 953z m0-832c-211.7 0-384 172.3-384 384s172.3 384 384 384 384-172.3 384-384-172.3-384-384-384z" fill="#bfbfbf" p-id="15764"></path></svg>