<?xml version="1.0" standalone="no"?><!DOCTYPE svg PUBLIC "-//W3C//DTD SVG 1.1//EN" "http://www.w3.org/Graphics/SVG/1.1/DTD/svg11.dtd"><svg t="1599316165431" class="icon" viewBox="0 0 1024 1024" version="1.1" xmlns="http://www.w3.org/2000/svg" p-id="9364" xmlns:xlink="http://www.w3.org/1999/xlink" width="48" height="48"><defs><style type="text/css"></style></defs><path d="M919.86 188h-469l-85.13-98.48a60.47 60.47 0 0 0-47-22.35H104.14c-52.62 0-95.43 43.77-95.43 97.56v694.53c0 53.8 42.81 97.57 95.43 97.57h815.72c52.62 0 95.43-43.77 95.43-97.57V285.6c0-53.8-42.81-97.6-95.43-97.6z m-815.72-40.82h205.68l92 106.39A40.8 40.8 0 0 0 433.06 268h486.8c8.51 0 15.43 7.88 15.43 17.56v85.08H88.71v-205.9c0-9.69 6.92-17.56 15.43-17.56z m815.72 729.65H104.14c-8.51 0-15.43-7.88-15.43-17.57V450.68h846.58v408.58c0 9.69-6.92 17.57-15.43 17.57z" fill="#00CEDD" p-id="9365"></path><path d="M890.29 590.5a15 15 0 0 0-15 15v213.71H778.1a15 15 0 0 0 0 30h102.19a25 25 0 0 0 25-25V605.5a15 15 0 0 0-15-15z" fill="#00CEDD" p-id="9366"></path><path d="M722.63 834.21m-15 0a15 15 0 1 0 30 0 15 15 0 1 0-30 0Z" fill="#00CEDD" p-id="9367"></path></svg>