<?xml version="1.0" standalone="no"?><!DOCTYPE svg PUBLIC "-//W3C//DTD SVG 1.1//EN" "http://www.w3.org/Graphics/SVG/1.1/DTD/svg11.dtd"><svg t="1599316383742" class="icon" viewBox="0 0 1024 1024" version="1.1" xmlns="http://www.w3.org/2000/svg" p-id="18549" xmlns:xlink="http://www.w3.org/1999/xlink" width="48" height="48"><defs><style type="text/css"></style></defs><path d="M63.77 209.12v604.46a45.07 45.07 0 0 0 45.07 45.07h806.32a45.07 45.07 0 0 0 45.07-45.07V210.42a45.07 45.07 0 0 0-45.07-45.07H107.54a43.77 43.77 0 0 0-43.77 43.77z m859.48-5.63a11.38 11.38 0 0 1 0 16.1l-71 71a11.38 11.38 0 0 1-16.1 0 11.38 11.38 0 0 1 0-16.1l71-71a11.38 11.38 0 0 1 16.09 0z m-105.05 0a11.38 11.38 0 0 1 0 16.1l-71 71a11.38 11.38 0 0 1-16.1 0 11.38 11.38 0 0 1 0-16.1l71-71a11.38 11.38 0 0 1 16.09 0z m-105.05 0a11.38 11.38 0 0 1 0 16.1l-71 71a11.38 11.38 0 0 1-16.1 0 11.38 11.38 0 0 1 0-16.1l71-71a11.38 11.38 0 0 1 16.09 0z m-105.05 0a11.38 11.38 0 0 1 0 16.1l-71 71a11.38 11.38 0 0 1-16.1 0 11.38 11.38 0 0 1 0-16.1l71-71a11.38 11.38 0 0 1 16.08 0z m-105.05 0a11.38 11.38 0 0 1 0 16.1l-71 71a11.38 11.38 0 0 1-16.1 0 11.38 11.38 0 0 1 0-16.1l71-71a11.38 11.38 0 0 1 16.05 0z m-105.05 0a11.38 11.38 0 0 1 0 16.1l-71 71a11.38 11.38 0 0 1-16.1 0 11.38 11.38 0 0 1 0-16.1l71-71a11.38 11.38 0 0 1 16.1 0z m-105.05 0a11.38 11.38 0 0 1 0 16.1l-71 71a11.38 11.38 0 0 1-16.1 0 11.38 11.38 0 0 1 0-16.1l71-71a11.38 11.38 0 0 1 16.07 0z m-105.05 0a11.38 11.38 0 0 1 0 16.1l-71 71a11.38 11.38 0 0 1-16.1 0 11.38 11.38 0 0 1 0-16.1l71-71a11.38 11.38 0 0 1 16.06 0z m241.33 501.14V487.17L617.55 595.9z m508.53-356.76H86.24v-22.76h851.52z" fill="#282727" p-id="18550"></path><path d="M429.23 487.17v217.46L617.55 595.9 429.23 487.17z" fill="#E02727" p-id="18551"></path></svg>