<?xml version="1.0" standalone="no"?><!DOCTYPE svg PUBLIC "-//W3C//DTD SVG 1.1//EN" "http://www.w3.org/Graphics/SVG/1.1/DTD/svg11.dtd"><svg t="1599316459364" class="icon" viewBox="0 0 1024 1024" version="1.1" xmlns="http://www.w3.org/2000/svg" p-id="20581" xmlns:xlink="http://www.w3.org/1999/xlink" width="48" height="48"><defs><style type="text/css"></style></defs><path d="M895.05 470.88L952 438 816.91 204.02l-56.95 32.88c-31.65 18.28-71.22-4.57-71.22-41.12v-65.76H418.57v65.76c0 36.55-39.57 59.4-71.22 41.12l-56.95-32.88L155.31 438l56.95 32.88c31.65 18.28 31.65 63.97 0 82.24L155.31 586 290.4 819.98l56.95-32.88c31.65-18.28 71.22 4.57 71.22 41.12v65.76h270.17v-65.76c0-36.55 39.57-59.4 71.22-41.12l56.95 32.88L952 586l-56.95-32.88c-31.65-18.28-31.65-63.96 0-82.24zM553.65 665c-84.5 0-153-68.5-153-153s68.5-153 153-153 153 68.5 153 153-68.5 153-153 153z" fill="#99D1FF" p-id="20582"></path><path d="M625.43 913.98H355.26c-11.05 0-20-8.95-20-20v-65.76c0-9.94-5.14-18.83-13.74-23.8-8.6-4.97-18.88-4.97-27.48 0l-56.95 32.88a20.026 20.026 0 0 1-15.18 2 19.965 19.965 0 0 1-12.14-9.32L74.68 596a20.026 20.026 0 0 1-2-15.18c1.37-5.12 4.73-9.49 9.32-12.14l56.95-32.88c8.6-4.97 13.74-13.86 13.74-23.8 0-9.94-5.14-18.83-13.74-23.8L82 455.32a20.001 20.001 0 0 1-9.32-12.14 20.038 20.038 0 0 1 2-15.18l135.09-233.98c2.65-4.59 7.02-7.95 12.14-9.32 5.12-1.37 10.58-0.65 15.18 2l56.95 32.88c8.6 4.97 18.88 4.97 27.48 0 8.6-4.97 13.74-13.86 13.74-23.8v-65.76c0-11.05 8.95-20 20-20h270.17c11.05 0 20 8.95 20 20v65.76c0 9.94 5.14 18.83 13.74 23.8 8.6 4.97 18.88 4.97 27.48 0l56.95-32.88a20.026 20.026 0 0 1 15.18-2c5.12 1.37 9.49 4.72 12.14 9.32L906.01 428a20.026 20.026 0 0 1 2 15.18 19.965 19.965 0 0 1-9.32 12.14l-56.95 32.88c-8.6 4.97-13.74 13.86-13.74 23.8 0 9.94 5.14 18.83 13.74 23.8l56.95 32.88c4.59 2.65 7.95 7.02 9.32 12.14 1.37 5.12 0.65 10.58-2 15.18L770.92 829.98a20.001 20.001 0 0 1-12.14 9.32c-5.12 1.37-10.58 0.65-15.18-2l-56.95-32.88c-8.6-4.97-18.88-4.97-27.48 0-8.6 4.97-13.74 13.87-13.74 23.8v65.76c0 11.04-8.95 20-20 20z m-250.17-40h230.17v-45.76c0-24.4 12.61-46.24 33.74-58.44 21.13-12.2 46.35-12.2 67.48 0l39.63 22.88 115.09-199.34-39.63-22.88C800.61 558.24 788 536.4 788 512s12.61-46.24 33.74-58.44l39.63-22.88-115.09-199.34-39.63 22.88c-21.13 12.2-46.35 12.2-67.48 0-21.13-12.2-33.74-34.05-33.74-58.44v-45.76H375.26v45.76c0 24.4-12.61 46.24-33.74 58.44-21.13 12.2-46.35 12.2-67.48 0l-39.63-22.88-115.09 199.34 39.63 22.88c21.13 12.2 33.74 34.05 33.74 58.44 0 24.4-12.61 46.24-33.74 58.44l-39.63 22.88 115.09 199.34 39.63-22.88c21.13-12.2 46.35-12.2 67.48 0 21.13 12.2 33.74 34.05 33.74 58.44v45.76zM490.35 685c-95.39 0-173-77.61-173-173s77.61-173 173-173 173 77.61 173 173c-0.01 95.39-77.61 173-173 173z m0-306c-73.34 0-133 59.66-133 133 0 73.33 59.66 133 133 133s133-59.66 133-133c-0.01-73.34-59.67-133-133-133z" fill="#0072F0" p-id="20583"></path></svg>