<?xml version="1.0" standalone="no"?><!DOCTYPE svg PUBLIC "-//W3C//DTD SVG 1.1//EN" "http://www.w3.org/Graphics/SVG/1.1/DTD/svg11.dtd"><svg t="1599207375128" class="icon" viewBox="0 0 1024 1024" version="1.1" xmlns="http://www.w3.org/2000/svg" p-id="7626" width="16" height="16" xmlns:xlink="http://www.w3.org/1999/xlink"><defs><style type="text/css"></style></defs><path d="M771.09045312 471.64751562L252.89970312 471.64751562c-44.7575625 0-81.03670312 36.20432813-81.03670312 80.87625001l0 343.07339062c0 44.67290625 36.27914062 80.87625 81.03670312 80.87625l518.19173438 0c44.75854688 0 81.04753125-36.20334375 81.04753125-80.87625L852.13896875 552.52376563C852.13798437 507.85184375 815.849 471.64751562 771.09045312 471.64751562zM546.12434375 721.73979687l0 90.04964063c0 18.8409375-15.26864062 34.13123438-34.12926563 34.13123438-18.84979688 0-34.12926563-15.29029687-34.12926562-34.13123438l0-90.04964062c-20.37951562-11.804625-34.13025-33.80835938-34.13025-59.06348438 0-37.7015625 30.55795313-68.2605 68.25951562-68.2605s68.27034375 30.5589375 68.27034375 68.2605C580.26542188 687.9314375 566.52551562 709.93517188 546.12434375 721.73979687zM511.99507812 147.37175c-131.95251562 0-238.92946875 105.46889063-238.92946875 244.04034375l1e-8 105.98273437 477.87075 22.75284375L750.93635938 391.41209375C750.93635938 252.84064062 643.95940625 147.37175 511.99507812 147.37175zM341.36745312 491.406875L341.36745312 389.03876562c0-94.2204375 76.395375-170.627625 170.62664063-170.627625 94.24209375 0 170.627625 76.4071875 170.627625 170.627625l0 104.76309375L341.36745312 491.406875z" p-id="7627" fill="#bfbfbf"></path></svg>